<?xml version="1.0" encoding="UTF-8" standalone="no"?>
<svg
   xmlns:dc="http://purl.org/dc/elements/1.1/"
   xmlns:cc="http://creativecommons.org/ns#"
   xmlns:rdf="http://www.w3.org/1999/02/22-rdf-syntax-ns#"
   xmlns:svg="http://www.w3.org/2000/svg"
   xmlns="http://www.w3.org/2000/svg"
   xmlns:sodipodi="http://sodipodi.sourceforge.net/DTD/sodipodi-0.dtd"
   xmlns:inkscape="http://www.inkscape.org/namespaces/inkscape"
   inkscape:version="1.0 (4035a4f, 2020-05-01)"
   sodipodi:docname="Logo UniversiteÌ Savoie Mont Blanc.svg"
   version="1.1"
   id="svg10"
   xml:space="preserve"
   width="800"
   height="296.42996"
   viewBox="0 0 800 296.42996"><sodipodi:namedview
     inkscape:current-layer="svg10"
     inkscape:window-maximized="0"
     inkscape:window-y="23"
     inkscape:window-x="0"
     inkscape:cy="582.97011"
     inkscape:cx="309.00474"
     inkscape:zoom="0.1978125"
     showgrid="false"
     id="namedview1025"
     inkscape:window-height="480"
     inkscape:window-width="728"
     inkscape:pageshadow="2"
     inkscape:pageopacity="0"
     guidetolerance="10"
     gridtolerance="10"
     objecttolerance="10"
     borderopacity="1"
     bordercolor="#666666"
     pagecolor="#ffffff" /><metadata
     id="metadata16"><rdf:RDF><cc:Work
         rdf:about=""><dc:format>image/svg+xml</dc:format><dc:type
           rdf:resource="http://purl.org/dc/dcmitype/StillImage" /><dc:title /></cc:Work></rdf:RDF></metadata><defs
     id="defs14" /><g
     transform="matrix(1.3433166,0,0,-1.3433166,-85.231891,578.68665)"
     id="g7568"><g
       id="g7511"><path
         id="path72"
         style="fill:#10069f;fill-opacity:1;fill-rule:nonzero;stroke:none;stroke-width:0.848301"
         d="m 253.98882,369.69482 v 0 23.35149 h 7.05854 v -23.03765 c 0,-7.50674 3.8856,-11.51034 10.24847,-11.51034 6.36287,0 10.24846,3.74913 10.24846,11.1965 v 23.35149 h 7.05854 v -22.96979 c 0,-12.08713 -6.80403,-18.19431 -17.36639,-18.19431 -10.57085,0 -17.24762,6.10718 -17.24762,17.81261 z" /><path
         id="path82"
         style="fill:#10069f;fill-opacity:1;fill-rule:nonzero;stroke:none;stroke-width:0.848301"
         d="m 298.41014,393.04631 v 0 h 6.61738 l 21.70163,-27.99973 v 27.99973 h 6.99916 v -40.52794 h -5.9811 l -22.33791,28.82251 v -28.82251 h -6.99916 z" /><path
         id="path92"
         style="fill:#10069f;fill-opacity:1;fill-rule:nonzero;stroke:none;stroke-width:0.848301"
         d="m 344.54519,393.04631 v 0 h 7.12642 v -40.52794 h -7.12642 z" /><path
         id="path102"
         style="fill:#10069f;fill-opacity:1;fill-rule:nonzero;stroke:none;stroke-width:0.848301"
         d="m 359.05253,393.04631 v 0 h 7.83058 l 12.21671,-31.1127 12.15732,31.1127 h 7.70332 L 382.154,352.26391 h -6.295 z" /><path
         id="path112"
         style="fill:#10069f;fill-opacity:1;fill-rule:nonzero;stroke:none;stroke-width:0.848301"
         d="m 405.89174,393.04631 v 0 h 30.10911 v -6.36165 h -22.97421 v -10.56881 h 20.36119 v -6.36165 h -20.36119 v -10.87418 h 23.22872 v -6.36165 h -30.36362 z" /><path
         id="path122"
         style="fill:#10069f;fill-opacity:1;fill-rule:nonzero;stroke:none;stroke-width:0.848301"
         d="m 462.28374,372.93502 v 0 c 5.0903,0 8.33112,2.67189 8.33112,6.81121 v 0.12723 c 0,4.32592 -3.18143,6.68397 -8.39899,6.68397 h -10.37572 v -13.62241 z m -17.57,20.11129 v 0 h 18.07903 c 5.0903,0 9.09467,-1.52679 11.63981,-4.07145 2.16338,-2.16296 3.37657,-5.15718 3.37657,-8.7197 v -0.12723 c 0,-6.61612 -4.01285,-10.6282 -9.61218,-12.28223 l 10.94414,-15.32733 h -8.45838 l -9.92607,14.12286 h -8.91651 v -14.12286 h -7.12641 z" /><path
         id="path132"
         style="fill:#10069f;fill-opacity:1;fill-rule:nonzero;stroke:none;stroke-width:0.848301"
         d="m 483.85812,358.43047 v 0 l 4.25888,5.08931 c 3.88559,-3.36743 7.83057,-5.27592 12.79361,-5.27592 4.38614,0 7.19428,2.0951 7.19428,5.08932 v 0.12723 c 0,2.92636 -1.59495,4.45315 -9.17101,6.23441 -8.58564,2.03573 -13.48929,4.58039 -13.48929,12.08713 v 0.12724 c 0,6.93843 5.79446,11.70543 13.87106,11.70543 5.92171,0 10.57085,-1.78126 14.70247,-5.08932 l -3.81772,-5.34378 c -3.69046,2.67189 -7.32154,4.13931 -11.01201,4.13931 -4.19949,0 -6.61738,-2.16296 -6.61738,-4.77548 v -0.12723 c 0,-3.12145 1.84947,-4.52101 9.67156,-6.36165 8.59412,-2.10358 12.98874,-5.15717 12.98874,-11.90052 v -0.12723 c 0,-7.56612 -5.9811,-12.08714 -14.51583,-12.08714 -6.16774,0 -12.02158,2.16296 -16.85736,6.48889 z" /><path
         id="path142"
         style="fill:#10069f;fill-opacity:1;fill-rule:nonzero;stroke:none;stroke-width:0.848301"
         d="m 524.01207,393.04631 v 0 h 7.12642 v -40.52794 h -7.12642 z" /><path
         id="path152"
         style="fill:#10069f;fill-opacity:1;fill-rule:nonzero;stroke:none;stroke-width:0.848301"
         d="m 551.94931,386.4302 v 0 h -12.85299 v 6.61611 h 32.83241 v -6.61611 h -12.853 v -33.91183 h -7.12642 z" /><path
         id="path162"
         style="fill:#10069f;fill-opacity:1;fill-rule:nonzero;stroke:none;stroke-width:0.848301"
         d="m 598.21162,404.81112 v 0 l 6.37136,-2.79913 -7.38942,-5.59825 h -5.47206 z m -18.70684,-11.76481 v 0 h 30.04124 v -6.36165 H 586.6312 v -10.56881 h 20.3018 v -6.36165 h -20.3018 v -10.87418 h 23.16933 v -6.36165 h -30.29575 z" /><path
         id="path172"
         style="fill:#10069f;fill-opacity:1;fill-rule:nonzero;stroke:none;stroke-width:0.848301"
         d="m 251.88483,299.45375 v 0 l 4.26736,5.08932 c 3.87711,-3.37592 7.82209,-5.28441 12.79362,-5.28441 4.38613,0 7.1858,2.10358 7.1858,5.08932 v 0.12723 c 0,2.86698 -1.65435,4.45315 -9.16254,6.17504 -8.59411,2.0951 -13.48928,4.63976 -13.48928,12.08713 v 0.12723 c 0,6.93844 5.78597,11.77329 13.87106,11.77329 5.85384,0 10.56236,-1.78126 14.70247,-5.08932 l -3.81772,-5.41164 c -3.69047,2.73975 -7.32155,4.19869 -11.01201,4.19869 -4.1995,0 -6.61739,-2.16296 -6.61739,-4.83485 v -0.12724 c 0,-3.12144 1.84099,-4.52101 9.67157,-6.36164 8.59411,-2.10359 12.98025,-5.15718 12.98025,-11.83267 V 305.052 c 0,-7.5746 -5.9811,-12.09561 -14.50734,-12.09561 -6.17623,0 -12.03007,2.10358 -16.86585,6.49736 z" /><path
         id="path182"
         style="fill:#10069f;fill-opacity:1;fill-rule:nonzero;stroke:none;stroke-width:0.848301"
         d="m 315.33537,309.63239 v 0 l -6.99915,16.15858 -6.93977,-16.15858 z m -10.18059,24.68319 v 0 h 6.54952 l 17.8839,-40.7824 h -7.56757 l -4.07224,9.79693 h -19.15648 l -4.19949,-9.79693 h -7.26216 z" /><path
         id="path192"
         style="fill:#10069f;fill-opacity:1;fill-rule:nonzero;stroke:none;stroke-width:0.848301"
         d="m 327.23818,334.06111 v 0 h 7.88996 l 12.21671,-31.17207 12.15733,31.17207 h 7.70331 l -16.80646,-40.85026 h -6.295 z" /><path
         id="path202"
         style="fill:#10069f;fill-opacity:1;fill-rule:nonzero;stroke:none;stroke-width:0.848301"
         d="m 404.68704,313.63598 v 0 0.12724 c 0,7.88844 -5.72658,14.44518 -13.7438,14.44518 -8.08509,0 -13.68441,-6.42951 -13.68441,-14.31795 v -0.12723 c 0,-7.82059 5.72658,-14.30947 13.81167,-14.30947 8.01722,0 13.61654,6.36165 13.61654,14.18223 z m -34.87701,0 v 0 0.12724 c 0,11.39159 8.78076,21.00192 21.26047,21.00192 12.40335,0 21.12473,-9.4831 21.12473,-20.87469 v -0.12723 c 0,-11.38311 -8.84863,-20.93407 -21.25199,-20.93407 -12.47971,0 -21.13321,9.42372 -21.13321,20.80683 z" /><path
         id="path212"
         style="fill:#10069f;fill-opacity:1;fill-rule:nonzero;stroke:none;stroke-width:0.848301"
         d="m 421.2305,334.06111 v 0 h 7.12642 v -40.52793 h -7.12642 z" /><path
         id="path222"
         style="fill:#10069f;fill-opacity:1;fill-rule:nonzero;stroke:none;stroke-width:0.848301"
         d="m 439.18228,334.06111 v 0 h 30.03275 v -6.36164 h -22.9742 v -10.56034 h 20.36967 v -6.36165 h -20.36967 v -10.88266 h 23.22872 v -6.36164 h -30.28727 z" /><path
         id="path232"
         style="fill:#10069f;fill-opacity:1;fill-rule:nonzero;stroke:none;stroke-width:0.848301"
         d="m 254.62511,275.01654 v 0 h 7.56757 l 12.28458,-19.1528 12.34397,19.1528 h 7.57606 V 234.4886 h -7.06703 v 29.07697 l -12.853,-19.08494 h -0.18664 l -12.66636,18.95771 V 234.4886 h -6.99915 z" /><path
         id="path242"
         style="fill:#10069f;fill-opacity:1;fill-rule:nonzero;stroke:none;stroke-width:0.848301"
         d="m 337.92781,254.65927 v 0 0.12723 c 0,7.82058 -5.72659,14.37732 -13.74381,14.37732 -8.01721,0 -13.68441,-6.4295 -13.68441,-14.25009 v -0.12723 c 0,-7.88844 5.72659,-14.37733 13.81167,-14.37733 8.01722,0 13.61655,6.36165 13.61655,14.2501 z m -34.87702,0 v 0 0.12723 c 0,11.39159 8.78076,20.93406 21.26047,20.93406 12.40336,0 21.12473,-9.41524 21.12473,-20.80683 v -0.12723 c 0,-11.39159 -8.78076,-21.00192 -21.25199,-21.00192 -12.4797,0 -21.13321,9.4831 -21.13321,20.87469 z" /><path
         id="path252"
         style="fill:#10069f;fill-opacity:1;fill-rule:nonzero;stroke:none;stroke-width:0.848301"
         d="m 354.03011,275.01654 v 0 h 6.61738 l 21.70163,-27.99125 v 27.99125 h 6.99916 V 234.4886 h -5.92171 l -22.3973,28.82251 V 234.4886 h -6.99916 z" /><path
         id="path262"
         style="fill:#10069f;fill-opacity:1;fill-rule:nonzero;stroke:none;stroke-width:0.848301"
         d="m 409.70947,268.40043 v 0 h -12.78513 v 6.61611 h 32.83241 v -6.61611 h -12.853 V 234.4886 h -7.19428 z" /><path
         id="path272"
         style="fill:#10069f;fill-opacity:1;fill-rule:nonzero;stroke:none;stroke-width:0.848301"
         d="m 472.97337,251.91952 v 0 h -11.32591 v -11.06927 h 11.83494 c 4.83578,0 7.82208,1.90849 7.82208,5.53887 v 0.12724 c 0,3.36743 -2.73179,5.40316 -8.33111,5.40316 z m 6.04048,11.64605 v 0 c 0,3.18083 -2.54515,5.15718 -7.12641,5.15718 h -10.23998 v -10.75543 h 9.73095 c 4.58126,0 7.63544,1.78126 7.63544,5.47102 z m -24.37403,11.45097 v 0 h 18.20629 c 4.64065,0 8.27173,-1.27233 10.56236,-3.56252 1.84948,-1.78127 2.74028,-4.0036 2.74028,-6.74335 v -0.12723 c 0,-4.83486 -2.74028,-7.44737 -5.79445,-8.97417 4.77639,-1.65403 8.08508,-4.38529 8.08508,-9.85631 v -0.12723 c 0,-7.25228 -5.98958,-11.13713 -15.02485,-11.13713 h -18.77471 z" /><path
         id="path282"
         style="fill:#10069f;fill-opacity:1;fill-rule:nonzero;stroke:none;stroke-width:0.848301"
         d="m 496.4566,275.01654 v 0 h 7.12641 v -34.03906 h 21.31986 V 234.4886 H 496.4566 Z" /><path
         id="path292"
         style="fill:#10069f;fill-opacity:1;fill-rule:nonzero;stroke:none;stroke-width:0.848301"
         d="m 556.85297,250.58781 v 0 l -7.00765,16.22644 -6.93128,-16.22644 z m -10.18908,24.75105 v 0 h 6.61738 L 571.1058,234.4886 h -7.57606 l -4.07224,9.79694 h -19.15648 l -4.1995,-9.79694 h -7.25367 z" /><path
         id="path302"
         style="fill:#10069f;fill-opacity:1;fill-rule:nonzero;stroke:none;stroke-width:0.848301"
         d="m 578.03708,275.01654 v 0 h 6.62587 l 21.70163,-27.99125 v 27.99125 h 6.99916 V 234.4886 h -5.9811 l -22.33792,28.82251 V 234.4886 h -7.00764 z" /><path
         id="path312"
         style="fill:#10069f;fill-opacity:1;fill-rule:nonzero;stroke:none;stroke-width:0.848301"
         d="m 621.94937,254.65927 v 0 0.12723 c 0,11.51882 8.66199,20.93406 20.93809,20.93406 7.4488,0 11.97068,-2.61252 15.84779,-6.30227 l -4.58127,-5.28441 c -3.24931,2.99422 -6.68526,5.02994 -11.32591,5.02994 -7.70331,0 -13.36203,-6.36164 -13.36203,-14.25009 v -0.12723 c 0,-7.9563 5.59933,-14.37733 13.36203,-14.37733 4.96304,0 8.14447,1.96787 11.6483,5.21656 l 4.51339,-4.64825 c -4.19949,-4.39378 -8.84863,-7.1929 -16.4162,-7.1929 -11.77556,0 -20.62419,9.22863 -20.62419,20.87469 z" /></g><g
       id="g7531"><g
         id="g7517"><path
           d="m 121.74292,355.6992 v 0 -11.39159 c 0,-3.30806 2.67241,-5.97995 5.9811,-5.97995 h 11.19865 v 17.37154 z"
           style="fill:#ef3340;fill-opacity:1;fill-rule:nonzero;stroke:none;stroke-width:0.848301"
           id="path322" /><path
           d="m 149.68016,338.32766 v 0 h 11.58043 c 3.30869,0 5.9811,2.67189 5.9811,5.97995 v 11.39159 h -17.56153 z"
           style="fill:#ef3340;fill-opacity:1;fill-rule:nonzero;stroke:none;stroke-width:0.848301"
           id="path332" /><path
           d="m 138.92267,383.81768 v 0 h -9.22192 -1.97673 -5.9811 v -5.97995 -4.32592 -6.99781 h 17.17975 z"
           style="fill:#ef3340;fill-opacity:1;fill-rule:nonzero;stroke:none;stroke-width:0.848301"
           id="path342" /><path
           d="m 167.24169,366.514 v 0 11.32373 0 5.97995 h -5.9811 -1.96825 -9.61218 V 366.514 Z"
           style="fill:#ef3340;fill-opacity:1;fill-rule:nonzero;stroke:none;stroke-width:0.848301"
           id="path352" /></g><g
         id="g7521"><path
           d="m 201.04125,241.23195 v 0 c -6.81251,-8.7197 -15.7884,-15.90412 -25.77386,-20.61174 l -0.25452,-0.12723 -0.12726,0.1866 -26.66466,35.69309 c -0.89081,1.21295 -2.29064,1.90849 -3.69895,1.90849 -1.45922,0 -2.85905,-0.69554 -3.74986,-1.90849 l -26.79192,-35.87969 -0.25452,0.12723 c -9.99394,4.70762 -18.901963,11.89204 -25.773863,20.6796 l -0.195128,0.12723 0.195128,0.18661 56.570163,75.77995 26.92766,-36.07479 29.77824,-39.89177 z m 19.85216,161.10237 v 0 h -30.67752 c -2.54515,0 -4.64065,-2.10359 -4.64065,-4.64825 0,-2.54466 2.0955,-4.63976 4.64065,-4.63976 h 26.09625 V 285.44964 c 0,-4.13083 -0.44964,-8.45675 -1.21319,-12.85053 l -0.12725,-0.69554 -27.99663,36.51586 c -0.83142,1.1451 -2.23125,1.78126 -3.69047,1.78126 -1.4677,0 -2.79966,-0.69554 -3.69046,-1.84063 l -8.39899,-11.26436 -22.9742,30.79886 c -0.89081,1.14509 -2.29064,1.84063 -3.69895,1.84063 -1.45922,0 -2.85905,-0.69554 -3.74986,-1.84063 l -22.9742,-30.79886 -8.39899,11.26436 c -0.83141,1.14509 -2.23124,1.84063 -3.69046,1.84063 -1.46771,0 -2.79967,-0.63616 -3.69047,-1.78126 l -28.005112,-36.51586 -0.127257,0.69554 c -0.763544,4.39378 -1.145317,8.7197 -1.145317,12.85053 v 107.59667 h 26.028382 c 2.613024,0 4.649134,2.0951 4.649134,4.63976 0,2.54466 -2.03611,4.64825 -4.649134,4.64825 H 68.094591 c -2.545149,0 -4.645744,-2.10359 -4.645744,-4.64825 V 285.44964 c 0,-15.52242 4.391229,-30.66314 12.728286,-43.70876 1.908861,-2.92636 3.945828,-5.72548 6.109204,-8.27014 8.270035,-9.92417 18.968143,-17.81262 30.930333,-22.7747 0.69568,-0.3817 1.45922,-0.57679 2.22277,-0.57679 1.4677,0 2.86753,0.70402 3.75833,1.84912 l 25.32423,33.91182 0.25451,-0.32232 24.50978,-32.8261 0.44116,-0.57679 c 0.5769,-0.82278 1.39983,-1.39957 2.3585,-1.65403 l 0.25452,-0.12723 c 0.44115,-0.12724 0.8908,-0.18661 1.33196,-0.18661 0.63628,0 1.21318,0.12723 1.7816,0.3817 12.08945,4.96208 22.91482,12.9099 31.24594,22.90193 2.16337,2.54466 4.19949,5.34378 6.10835,8.27014 8.3396,13.04562 12.73423,28.18634 12.73423,43.70876 v 5.59825 106.63818 c 0,2.54466 -2.10399,4.64825 -4.64914,4.64825 z"
           style="fill:#10069f;fill-opacity:1;fill-rule:nonzero;stroke:none;stroke-width:0.848301"
           id="path362" /><path
           d="m 168.51426,402.33432 v 0 h -48.04391 l -1.08593,6.23441 0.50903,-0.19509 c 2.55363,-0.82277 5.28542,-1.27233 8.21234,-1.27233 6.49013,0 12.28458,2.29868 16.16169,6.42951 l 0.25452,0.25446 0.19512,-0.25446 c 3.8856,-4.13083 9.67157,-6.42951 16.22957,-6.42951 2.85905,0 5.59932,0.44956 8.14447,1.27233 l 0.50903,0.19509 z m 13.4299,23.79256 v 0 c 0,2.41743 -1.78161,4.45315 -4.1995,4.64824 -2.41789,0.18661 -4.58126,-1.46742 -4.96304,-3.81698 l -0.82293,-4.70762 c -1.59496,-3.63038 -5.79445,-5.92058 -11.012,-5.92058 -5.47207,0 -11.83494,2.61252 -11.83494,9.79694 0,2.54466 -2.03612,4.64824 -4.58975,4.64824 -2.60454,0 -4.64066,-2.10358 -4.64066,-4.64824 0,-7.18442 -6.36287,-9.79694 -11.77555,-9.79694 -5.21755,0 -9.48492,2.2902 -11.07139,5.92058 v 0.0594 l -0.83142,4.64825 c -0.38177,2.22233 -2.29063,3.81698 -4.58127,3.81698 -0.12725,0 -0.25451,0 -0.38177,0 -2.41789,-0.19509 -4.19949,-2.23081 -4.19949,-4.64824 0,-0.25447 0,-0.56831 0,-0.89063 0.19513,-1.20447 0.83141,-4.63976 1.01806,-5.34378 0,0 0,0 0,0 l 3.94498,-22.96979 c 0.38177,-2.22234 2.3585,-3.87637 4.58126,-3.87637 h 55.8151 c 2.29064,0 4.1995,1.65403 4.58127,3.87637 l 3.94498,22.91041 c 0,0 0,0 0,0 0.12726,0.69554 0.8908,4.3853 1.01806,5.65763 0,0.25446 0,0.44955 0,0.63616 z"
           style="fill:#10069f;fill-opacity:1;fill-rule:nonzero;stroke:none;stroke-width:0.848301"
           id="path372" /></g></g></g></svg>
