<?xml version="1.0" standalone="no"?>
<!DOCTYPE svg PUBLIC "-//W3C//DTD SVG 20010904//EN"
 "http://www.w3.org/TR/2001/REC-SVG-20010904/DTD/svg10.dtd">
<svg version="1.0" xmlns="http://www.w3.org/2000/svg"
 width="991.000000pt" height="397.000000pt" viewBox="0 0 991.000000 397.000000"
 preserveAspectRatio="xMidYMid meet">
<metadata>
Created by potrace 1.16, written by Peter Selinger 2001-2019
</metadata>
<g transform="translate(0.000000,397.000000) scale(0.100000,-0.100000)"
fill="#000000" stroke="none">
<path d="M6027 3229 c-26 -15 -49 -67 -41 -92 21 -72 102 -91 148 -36 34 40
33 74 -3 110 -31 30 -71 37 -104 18z"/>
<path d="M4093 2930 c-94 -19 -179 -87 -222 -179 -24 -51 -26 -68 -29 -206
l-3 -150 58 -40 c32 -22 61 -41 65 -43 4 -2 8 21 10 50 l3 53 248 3 249 2 -4
148 c-3 128 -6 152 -25 188 -49 92 -113 144 -210 169 -62 16 -78 17 -140 5z
m155 -147 c20 -10 47 -36 63 -62 24 -37 29 -56 29 -108 l0 -63 -185 0 -185 0
0 53 c1 157 139 246 278 180z"/>
<path d="M7277 2930 c-63 -16 -112 -47 -160 -100 -67 -74 -79 -117 -84 -302
-8 -241 18 -342 110 -425 114 -102 281 -117 435 -39 75 38 78 45 36 100 -20
26 -39 46 -42 44 -4 -2 -34 -17 -67 -33 -122 -59 -252 -30 -309 68 -25 44 -43
143 -28 164 6 9 72 13 252 15 l245 3 0 135 c0 124 -3 140 -26 191 -33 71 -87
125 -156 156 -60 28 -148 37 -206 23z m148 -139 c74 -33 115 -104 115 -199 l0
-42 -187 2 -188 3 2 57 c5 149 131 237 258 179z"/>
<path d="M1989 2917 c-84 -31 -141 -82 -181 -157 -23 -44 -23 -51 -26 -387
l-3 -343 60 0 c44 0 60 4 65 16 3 9 6 153 6 320 0 285 1 307 20 344 60 118
250 118 310 0 18 -35 20 -59 20 -235 0 -138 3 -195 11 -195 6 0 36 14 65 31
l54 30 0 178 0 178 -30 61 c-34 66 -77 110 -143 144 -53 27 -175 35 -228 15z"/>
<path d="M5325 2907 c-60 -29 -87 -57 -114 -117 -30 -65 -28 -143 5 -208 37
-74 84 -104 222 -142 152 -42 169 -52 194 -106 30 -69 4 -145 -62 -179 -58
-30 -194 -14 -298 35 -35 17 -68 28 -72 25 -8 -5 -60 -93 -60 -101 0 -11 133
-68 198 -85 163 -41 286 -18 365 71 53 58 70 103 70 180 0 74 -18 122 -65 175
-41 47 -83 68 -203 99 -156 41 -185 63 -185 137 0 81 52 115 158 105 137 -13
123 -17 148 44 l22 55 -41 13 c-23 8 -85 16 -137 18 -86 5 -100 3 -145 -19z"/>
<path d="M2991 2911 c-12 -8 11 -79 128 -403 192 -526 170 -480 228 -476 l48
3 102 280 c56 154 102 285 102 292 1 12 -84 83 -99 83 -4 0 -39 -86 -77 -192
-39 -106 -74 -193 -79 -195 -5 -2 -56 126 -113 285 -57 158 -110 297 -117 310
-12 18 -23 22 -62 22 -26 0 -53 -4 -61 -9z"/>
<path d="M1380 2598 c0 -297 -1 -314 -21 -356 -65 -134 -259 -133 -320 2 -15
34 -19 67 -19 191 l0 149 -65 -64 -65 -64 0 -93 c0 -158 64 -271 183 -324 78
-35 183 -33 259 4 65 32 121 89 152 156 20 44 21 63 24 379 l3 332 -65 0 -66
0 0 -312z"/>
<path d="M6012 2473 l3 -438 51 -3 c35 -2 55 2 62 11 9 11 12 125 10 438 l-3
424 -63 3 -62 3 2 -438z"/>
<path d="M6463 2489 c2 -142 8 -248 15 -269 19 -56 83 -132 141 -167 74 -44
147 -58 225 -43 57 11 149 50 160 68 2 4 -9 30 -26 56 -22 32 -36 46 -47 42
-9 -3 -43 -15 -75 -26 -93 -33 -182 -6 -233 72 -28 41 -28 42 -31 249 l-3 208
-52 17 c-29 9 -58 19 -65 22 -11 4 -13 -39 -9 -229z"/>
<path d="M2660 2353 c0 -164 4 -304 9 -311 5 -9 25 -12 62 -10 l54 3 3 308 2
307 -65 0 -65 0 0 -297z"/>
<path d="M4733 2489 l-63 -74 3 -190 2 -190 58 -3 c40 -2 59 1 62 10 3 7 4
127 3 267 l-3 253 -62 -73z"/>
<path d="M4143 1779 c-36 -14 -67 -37 -101 -74 -76 -82 -82 -111 -82 -361 0
-253 9 -289 87 -366 82 -78 169 -107 266 -87 75 16 118 41 170 99 73 81 79
112 75 372 -3 215 -4 225 -28 272 -32 62 -107 130 -167 150 -63 22 -156 20
-220 -5z m172 -165 c66 -31 70 -46 70 -269 0 -223 -4 -238 -70 -269 -44 -21
-83 -20 -121 3 -56 34 -64 68 -64 268 0 201 8 231 71 265 41 22 71 23 114 2z"/>
<path d="M2710 1730 l0 -59 -48 6 c-44 5 -52 2 -81 -23 -28 -25 -33 -38 -38
-89 -10 -107 38 -174 114 -161 21 4 50 7 66 7 l27 0 0 189 c0 183 -1 190 -20
190 -18 0 -20 -7 -20 -60z m-34 -98 c39 -25 46 -124 13 -166 -23 -30 -45 -33
-77 -10 -19 13 -22 24 -22 81 0 48 5 72 17 85 16 18 49 23 69 10z"/>
<path d="M3256 1774 c-14 -13 -16 -66 -16 -428 0 -394 1 -414 19 -430 17 -16
39 -17 198 -14 160 3 182 5 218 25 93 50 144 137 145 244 0 77 -12 117 -53
178 -29 43 -30 43 -12 80 24 50 30 131 14 188 -17 62 -96 143 -155 161 -24 7
-103 12 -192 12 -124 0 -153 -3 -166 -16z m308 -165 c35 -16 52 -61 37 -98
-16 -38 -49 -51 -126 -51 l-65 0 0 80 0 80 65 0 c35 0 75 -5 89 -11z m50 -348
c44 -41 47 -120 6 -161 -17 -17 -34 -20 -115 -20 l-95 0 0 106 0 106 89 -4
c78 -3 93 -6 115 -27z"/>
<path d="M4757 1772 c-15 -17 -17 -61 -17 -425 0 -394 1 -408 20 -427 15 -15
33 -20 69 -20 42 0 53 4 70 26 19 24 21 40 21 170 l0 144 43 0 42 0 80 -156
c44 -86 89 -162 100 -170 26 -19 95 -18 123 2 12 8 22 26 22 39 0 13 -34 89
-76 169 l-76 146 49 54 c57 62 73 107 73 202 -1 115 -49 195 -145 240 -46 22
-62 24 -216 24 -148 0 -168 -2 -182 -18z m342 -176 c39 -36 40 -117 1 -156
-17 -17 -34 -20 -100 -20 l-80 0 0 101 0 101 79 -3 c60 -3 84 -9 100 -23z"/>
<path d="M5527 1772 c-15 -17 -17 -61 -17 -425 0 -394 1 -408 20 -427 18 -18
33 -20 158 -20 172 0 221 13 292 76 90 82 95 96 98 339 3 197 2 214 -19 270
-30 80 -104 154 -182 183 -49 19 -79 22 -196 22 -121 0 -140 -2 -154 -18z
m311 -179 c63 -47 67 -61 70 -236 5 -246 -12 -277 -152 -277 l-76 0 0 263 c0
145 3 267 8 271 13 14 124 -2 150 -21z"/>
<path d="M6277 1772 c-15 -17 -17 -61 -17 -429 0 -384 1 -411 18 -426 16 -15
48 -17 239 -17 260 0 256 -1 251 96 -4 79 -14 84 -195 84 l-143 0 0 105 0 105
126 0 c69 0 134 5 145 10 16 9 19 22 19 74 0 40 -5 68 -13 74 -8 7 -68 13
-143 14 l-129 3 0 75 0 75 155 5 c152 5 155 5 168 30 17 34 9 110 -14 127 -13
10 -72 13 -234 13 -197 0 -218 -2 -233 -18z"/>
<path d="M7146 1768 c-11 -19 -167 -516 -236 -755 -18 -61 -18 -63 2 -88 16
-21 28 -25 68 -25 69 0 83 17 123 150 l34 115 102 3 c117 3 102 18 151 -145
34 -114 43 -123 114 -123 46 0 86 24 86 52 0 29 -244 805 -258 821 -12 13 -31
17 -93 17 -71 0 -80 -2 -93 -22z m148 -404 c6 -23 4 -24 -53 -24 l-59 0 24 83
c14 45 28 89 31 97 5 13 37 -75 57 -156z"/>
<path d="M7734 1776 c-18 -14 -19 -31 -22 -306 -2 -175 1 -314 8 -348 42 -229
311 -313 478 -149 78 76 82 100 82 466 0 365 3 351 -86 351 -93 0 -88 17 -94
-353 -5 -349 -5 -344 -60 -367 -43 -18 -94 -5 -124 31 l-26 31 0 312 c0 290
-1 314 -18 329 -23 21 -110 23 -138 3z"/>
<path d="M8436 1774 c-9 -8 -16 -25 -16 -37 0 -12 45 -105 100 -205 l100 -184
-100 -183 c-55 -101 -100 -194 -100 -208 0 -15 9 -32 22 -41 25 -18 90 -21
118 -6 10 5 42 54 71 107 29 54 60 111 70 126 l16 28 69 -127 c72 -132 85
-144 147 -144 44 0 77 25 77 57 0 22 -112 243 -181 359 l-18 30 99 183 c127
232 129 261 20 261 -68 0 -67 1 -144 -140 -32 -58 -61 -109 -66 -113 -4 -5
-35 43 -70 105 -34 62 -69 121 -78 131 -20 23 -114 24 -136 1z"/>
<path d="M2839 1651 c-27 -27 -29 -35 -29 -100 0 -38 5 -82 12 -96 23 -52 114
-73 158 -37 20 16 20 19 7 31 -12 9 -21 10 -36 2 -32 -18 -58 -13 -80 15 -37
47 -29 54 54 54 l75 0 0 54 c0 48 -3 57 -31 80 -43 36 -91 35 -130 -3z m103
-28 c10 -9 18 -27 18 -40 0 -23 -3 -24 -52 -21 -60 3 -73 23 -39 57 25 25 48
27 73 4z"/>
</g>
</svg>
